<svg width="24" height="24" viewBox="0 0 24 24" fill="none" xmlns="http://www.w3.org/2000/svg">
<g clip-path="url(#clip0_1_531)">
<path d="M12.001 1.59404C2.731 1.59104 -1.912 12.797 4.641 19.352C6.09578 20.8072 7.9494 21.7983 9.96746 22.1999C11.9855 22.6015 14.0773 22.3957 15.9784 21.6084C17.8795 20.8211 19.5043 19.4877 20.6476 17.7769C21.7908 16.0661 22.401 14.0547 22.401 11.997C22.401 6.25304 17.746 1.59604 12.001 1.59404ZM6.11 6.78304C6.611 4.18504 10.003 3.48904 11.486 5.68004C12.969 7.87004 11.064 10.762 8.466 10.262C8.08281 10.1884 7.71787 10.04 7.39205 9.82532C7.06624 9.61062 6.78592 9.33381 6.56712 9.01072C6.34832 8.68764 6.19534 8.3246 6.1169 7.94237C6.03847 7.56013 6.03612 7.16618 6.11 6.78304ZM10.432 15.771C9.928 18.368 6.535 19.059 5.055 16.867C3.575 14.675 5.482 11.787 8.08 12.288C8.46324 12.3621 8.82813 12.5109 9.1538 12.7261C9.47947 12.9413 9.75953 13.2185 9.97797 13.542C10.1964 13.8655 10.3489 14.2289 10.4269 14.6113C10.5048 14.9938 10.5065 15.3879 10.432 15.771ZM11.692 13.366C10.54 13.143 10.23 11.639 11.201 10.979C12.171 10.319 13.457 11.159 13.241 12.313C13.209 12.4841 13.1434 12.6471 13.0482 12.7927C12.9529 12.9383 12.8298 13.0636 12.686 13.1615C12.5421 13.2593 12.3803 13.3278 12.2099 13.3629C12.0395 13.398 11.8638 13.3991 11.693 13.366H11.692ZM17.89 17.204C17.389 19.802 13.997 20.497 12.514 18.307C11.03 16.116 12.935 13.225 15.534 13.724C15.9173 13.7976 16.2823 13.9461 16.6082 14.1608C16.9341 14.3756 17.2145 14.6525 17.4333 14.9757C17.6521 15.2989 17.8051 15.6621 17.8834 16.0444C17.9618 16.4268 17.964 16.8208 17.89 17.204ZM15.923 11.702C13.325 11.201 12.63 7.80604 14.821 6.32204C17.011 4.83904 19.902 6.74404 19.403 9.34204C19.3299 9.72569 19.1818 10.0912 18.9672 10.4175C18.7526 10.7438 18.4758 11.0247 18.1525 11.2439C17.8293 11.4631 17.466 11.6164 17.0834 11.695C16.7008 11.7736 16.3065 11.776 15.923 11.702ZM13.59 23.264L15.854 23.874C16.806 24.1266 17.8193 23.9909 18.6712 23.4966C19.5231 23.0023 20.1439 22.1899 20.397 21.238L21.037 18.836C19.2352 21.2362 16.5583 22.8276 13.589 23.264H13.59ZM21.233 3.59904L18.87 2.97004C20.0642 3.88859 21.064 5.03518 21.8114 6.34327C22.5588 7.65135 23.039 9.09488 23.224 10.59L23.874 8.13104C24.1227 7.17977 23.9842 6.16869 23.4888 5.31938C22.9934 4.47006 22.1815 3.85178 21.231 3.60004L21.233 3.59904ZM0.672003 13.809L0.131003 15.849C-0.121599 16.801 0.0141765 17.8144 0.508481 18.6663C1.00279 19.5182 1.81516 20.1389 2.767 20.392L4.874 20.954C2.62454 19.1855 1.12389 16.6344 0.671003 13.809H0.672003ZM10.357 0.702039L8.15 0.126039C7.67829 0.000382543 7.18644 -0.0310739 6.70256 0.0334676C6.21869 0.098009 5.75228 0.257283 5.32999 0.502184C4.90771 0.747085 4.53783 1.07281 4.2415 1.46074C3.94517 1.84868 3.72821 2.29121 3.603 2.76304L3.052 4.84504C4.86972 2.58268 7.48336 1.10056 10.358 0.702039H10.357Z" fill="#222222"/>
</g>
<defs>
<clipPath id="clip0_1_531">
<rect width="24" height="24" fill="white"/>
</clipPath>
</defs>
</svg>
